RedHatMonoVF-Regular.ufo
<glyph name="dollar" format="2">
  <advance width="600"/>
  <unicode hex="0024"/>
  <outline>
    <contour>
      <point x="276" y="-67" type="line"/>
      <point x="330" y="-67" type="line"/>
      <point x="330" y="22" type="line"/>
      <point x="448" y="32"/>
      <point x="529" y="103"/>
      <point x="529" y="201" type="curve" smooth="yes"/>
      <point x="529" y="294"/>
      <point x="476" y="344"/>
      <point x="330" y="384" type="curve"/>
      <point x="330" y="613" type="line"/>
      <point x="381" y="605"/>
      <point x="430" y="582"/>
      <point x="475" y="545" type="curve"/>
      <point x="512" y="597" type="line"/>
      <point x="458" y="640"/>
      <point x="395" y="668"/>
      <point x="330" y="676" type="curve"/>
      <point x="330" y="767" type="line"/>
      <point x="276" y="767" type="line"/>
      <point x="276" y="678" type="line"/>
      <point x="156" y="672"/>
      <point x="78" y="604"/>
      <point x="78" y="507" type="curve" smooth="yes"/>
      <point x="78" y="428"/>
      <point x="120" y="369"/>
      <point x="276" y="327" type="curve"/>
      <point x="276" y="84" type="line"/>
      <point x="219" y="90"/>
      <point x="162" y="113"/>
      <point x="107" y="155" type="curve"/>
      <point x="71" y="101" type="line"/>
      <point x="129" y="56"/>
      <point x="202" y="28"/>
      <point x="276" y="22" type="curve"/>
    </contour>
    <contour>
      <point x="146" y="512" type="curve" smooth="yes"/>
      <point x="146" y="570"/>
      <point x="196" y="613"/>
      <point x="276" y="617" type="curve"/>
      <point x="276" y="396" type="line"/>
      <point x="172" y="426"/>
      <point x="146" y="461"/>
    </contour>
    <contour>
      <point x="460" y="195" type="curve" smooth="yes"/>
      <point x="460" y="135"/>
      <point x="407" y="91"/>
      <point x="330" y="83" type="curve"/>
      <point x="330" y="316" type="line"/>
      <point x="424" y="290"/>
      <point x="460" y="256"/>
    </contour>
  </outline>
</glyph>
<glyph name="quotesingle" format="2">
  <advance width="600"/>
  <unicode hex="0027"/>
  <outline>
    <contour>
      <point x="275" y="530" type="line"/>
      <point x="326" y="530" type="line"/>
      <point x="336" y="750" type="line"/>
      <point x="264" y="750" type="line"/>
    </contour>
  </outline>
</glyph>
<glyph name="slash" format="2">
  <advance width="600"/>
  <unicode hex="002F"/>
  <outline>
    <contour>
      <point x="39" y="-209" type="line"/>
      <point x="111" y="-209" type="line"/>
      <point x="511" y="700" type="line"/>
      <point x="439" y="700" type="line"/>
    </contour>
  </outline>
</glyph>
<glyph name="four" format="2">
  <advance width="600"/>
  <unicode hex="0034"/>
  <outline>
    <contour>
      <point x="407" y="0" type="line"/>
      <point x="478" y="0" type="line"/>
      <point x="478" y="187" type="line"/>
      <point x="575" y="187" type="line"/>
      <point x="575" y="250" type="line"/>
      <point x="478" y="250" type="line"/>
      <point x="478" y="700" type="line"/>
      <point x="401" y="700" type="line"/>
      <point x="29" y="244" type="line"/>
      <point x="29" y="187" type="line"/>
      <point x="407" y="187" type="line"/>
    </contour>
    <contour>
      <point x="113" y="250" type="line"/>
      <point x="407" y="613" type="line"/>
      <point x="407" y="250" type="line"/>
    </contour>
  </outline>
</glyph>
<glyph name="five" format="2">
  <advance width="600"/>
  <unicode hex="0035"/>
  <outline>
    <contour>
      <point x="288" y="-11" type="curve" smooth="yes"/>
      <point x="434" y="-11"/>
      <point x="533" y="83"/>
      <point x="533" y="221" type="curve" smooth="yes"/>
      <point x="533" y="347"/>
      <point x="441" y="432"/>
      <point x="304" y="432" type="curve" smooth="yes"/>
      <point x="249" y="432"/>
      <point x="202" y="421"/>
      <point x="149" y="395" type="curve"/>
      <point x="160" y="637" type="line"/>
      <point x="496" y="637" type="line"/>
      <point x="496" y="700" type="line"/>
      <point x="98" y="700" type="line"/>
      <point x="82" y="350" type="line"/>
      <point x="132" y="334" type="line"/>
      <point x="187" y="362"/>
      <point x="236" y="374"/>
      <point x="289" y="374" type="curve" smooth="yes"/>
      <point x="391" y="374"/>
      <point x="461" y="311"/>
      <point x="461" y="218" type="curve" smooth="yes"/>
      <point x="461" y="119"/>
      <point x="391" y="51"/>
      <point x="289" y="51" type="curve" smooth="yes"/>
      <point x="213" y="51"/>
      <point x="156" y="75"/>
      <point x="95" y="133" type="curve"/>
      <point x="50" y="84" type="line"/>
      <point x="116" y="21"/>
      <point x="196" y="-11"/>
    </contour>
  </outline>
</glyph>
<glyph name="seven" format="2">
  <advance width="600"/>
  <unicode hex="0037"/>
  <outline>
    <contour>
      <point x="123" y="0" type="line"/>
      <point x="205" y="0" type="line"/>
      <point x="549" y="644" type="line"/>
      <point x="549" y="700" type="line"/>
      <point x="51" y="700" type="line"/>
      <point x="51" y="637" type="line"/>
      <point x="471" y="637" type="line"/>
    </contour>
  </outline>
</glyph>
<glyph name="eight" format="2">
  <advance width="600"/>
  <unicode hex="0038"/>
  <outline>
    <contour>
      <point x="300" y="-11" type="curve" smooth="yes"/>
      <point x="444" y="-11"/>
      <point x="549" y="74"/>
      <point x="549" y="189" type="curve" smooth="yes"/>
      <point x="549" y="274"/>
      <point x="481" y="346"/>
      <point x="384" y="369" type="curve"/>
      <point x="466" y="392"/>
      <point x="522" y="455"/>
      <point x="522" y="529" type="curve" smooth="yes"/>
      <point x="522" y="633"/>
      <point x="427" y="711"/>
      <point x="300" y="711" type="curve"/>
      <point x="173" y="711"/>
      <point x="78" y="633"/>
      <point x="78" y="529" type="curve" smooth="yes"/>
      <point x="78" y="455"/>
      <point x="134" y="392"/>
      <point x="216" y="369" type="curve"/>
      <point x="119" y="346"/>
      <point x="51" y="274"/>
      <point x="51" y="189" type="curve" smooth="yes"/>
      <point x="51" y="74"/>
      <point x="156" y="-11"/>
    </contour>
    <contour>
      <point x="300" y="399" type="curve"/>
      <point x="214" y="399"/>
      <point x="148" y="454"/>
      <point x="148" y="526" type="curve"/>
      <point x="148" y="598"/>
      <point x="214" y="653"/>
      <point x="300" y="653" type="curve"/>
      <point x="386" y="653"/>
      <point x="452" y="598"/>
      <point x="452" y="526" type="curve"/>
      <point x="452" y="454"/>
      <point x="386" y="399"/>
    </contour>
    <contour>
      <point x="300" y="47" type="curve" smooth="yes"/>
      <point x="199" y="47"/>
      <point x="122" y="110"/>
      <point x="122" y="192" type="curve" smooth="yes"/>
      <point x="122" y="274"/>
      <point x="199" y="337"/>
      <point x="300" y="337" type="curve" smooth="yes"/>
      <point x="401" y="337"/>
      <point x="478" y="274"/>
      <point x="478" y="192" type="curve" smooth="yes"/>
      <point x="478" y="110"/>
      <point x="401" y="47"/>
    </contour>
  </outline>
</glyph>
<glyph name="at" format="2">
  <advance width="600"/>
  <unicode hex="0040"/>
  <outline>
    <contour>
      <point x="277" y="51" type="curve" smooth="yes"/>
      <point x="309" y="51"/>
      <point x="344" y="65"/>
      <point x="375" y="92" type="curve"/>
      <point x="389" y="69"/>
      <point x="415" y="55"/>
      <point x="451" y="55" type="curve" smooth="yes"/>
      <point x="539" y="55"/>
      <point x="588" y="143"/>
      <point x="588" y="266" type="curve" smooth="yes"/>
      <point x="588" y="453"/>
      <point x="470" y="576"/>
      <point x="310" y="576" type="curve" smooth="yes"/>
      <point x="140" y="576"/>
      <point x="12" y="424"/>
      <point x="12" y="210" type="curve" smooth="yes"/>
      <point x="12" y="4"/>
      <point x="141" y="-144"/>
      <point x="315" y="-144" type="curve" smooth="yes"/>
      <point x="381" y="-144"/>
      <point x="439" y="-128"/>
      <point x="493" y="-92" type="curve"/>
      <point x="469" y="-52" type="line"/>
      <point x="426" y="-84"/>
      <point x="372" y="-100"/>
      <point x="315" y="-100" type="curve" smooth="yes"/>
      <point x="165" y="-100"/>
      <point x="58" y="30"/>
      <point x="58" y="210" type="curve" smooth="yes"/>
      <point x="58" y="397"/>
      <point x="163" y="532"/>
      <point x="308" y="532" type="curve" smooth="yes"/>
      <point x="444" y="532"/>
      <point x="542" y="422"/>
      <point x="542" y="265" type="curve" smooth="yes"/>
      <point x="542" y="164"/>
      <point x="508" y="99"/>
      <point x="456" y="99" type="curve" smooth="yes"/>
      <point x="423" y="99"/>
      <point x="410" y="122"/>
      <point x="416" y="163" type="curve" smooth="yes"/>
      <point x="446" y="366" type="line"/>
      <point x="391" y="366" type="line"/>
      <point x="388" y="343" type="line"/>
      <point x="366" y="366"/>
      <point x="334" y="379"/>
      <point x="301" y="379" type="curve" smooth="yes"/>
      <point x="215" y="379"/>
      <point x="147" y="307"/>
      <point x="147" y="202" type="curve" smooth="yes"/>
      <point x="147" y="111"/>
      <point x="203" y="51"/>
    </contour>
    <contour>
      <point x="289" y="98" type="curve" smooth="yes"/>
      <point x="237" y="98"/>
      <point x="201" y="142"/>
      <point x="201" y="206" type="curve" smooth="yes"/>
      <point x="201" y="278"/>
      <point x="245" y="331"/>
      <point x="303" y="331" type="curve" smooth="yes"/>
      <point x="335" y="331"/>
      <point x="365" y="315"/>
      <point x="380" y="289" type="curve"/>
      <point x="363" y="168" type="line" smooth="yes"/>
      <point x="361" y="155"/>
      <point x="361" y="142"/>
      <point x="362" y="131" type="curve"/>
      <point x="342" y="109"/>
      <point x="315" y="98"/>
    </contour>
  </outline>
</glyph>
<glyph name="E" format="2">
  <advance width="600"/>
  <unicode hex="0045"/>
  <anchor x="319" y="700" name="top"/>
  <anchor x="539" y="0" name="bottom"/>
  <outline>
    <contour>
      <point x="97" y="0" type="line"/>
      <point x="539" y="0" type="line"/>
      <point x="539" y="67" type="line"/>
      <point x="174" y="67" type="line"/>
      <point x="174" y="320" type="line"/>
      <point x="412" y="320" type="line"/>
      <point x="412" y="387" type="line"/>
      <point x="174" y="387" type="line"/>
      <point x="174" y="633" type="line"/>
      <point x="535" y="633" type="line"/>
      <point x="535" y="700" type="line"/>
      <point x="97" y="700" type="line"/>
    </contour>
  </outline>
</glyph>
<glyph name="F" format="2">
  <advance width="600"/>
  <unicode hex="0046"/>
  <outline>
    <contour>
      <point x="102" y="0" type="line"/>
      <point x="179" y="0" type="line"/>
      <point x="179" y="315" type="line"/>
      <point x="427" y="315" type="line"/>
      <point x="427" y="382" type="line"/>
      <point x="179" y="382" type="line"/>
      <point x="179" y="633" type="line"/>
      <point x="545" y="633" type="line"/>
      <point x="545" y="700" type="line"/>
      <point x="102" y="700" type="line"/>
    </contour>
  </outline>
</glyph>
<glyph name="L" format="2">
  <advance width="600"/>
  <unicode hex="004C"/>
  <anchor x="143" y="700" name="top"/>
  <anchor x="323" y="0" name="bottom"/>
  <outline>
    <contour>
      <point x="104" y="0" type="line"/>
      <point x="541" y="0" type="line"/>
      <point x="541" y="67" type="line"/>
      <point x="181" y="67" type="line"/>
      <point x="181" y="700" type="line"/>
      <point x="104" y="700" type="line"/>
    </contour>
  </outline>
</glyph>
<glyph name="U" format="2">
  <advance width="600"/>
  <unicode hex="0055"/>
  <anchor x="300" y="700" name="top"/>
  <anchor x="376" y="0" name="bottom"/>
  <outline>
    <contour>
      <point x="300" y="-11" type="curve" smooth="yes"/>
      <point x="448" y="-11"/>
      <point x="541" y="91"/>
      <point x="541" y="251" type="curve" smooth="yes"/>
      <point x="541" y="700" type="line"/>
      <point x="464" y="700" type="line"/>
      <point x="464" y="251" type="line" smooth="yes"/>
      <point x="464" y="134"/>
      <point x="400" y="59"/>
      <point x="300" y="59" type="curve" smooth="yes"/>
      <point x="200" y="59"/>
      <point x="136" y="134"/>
      <point x="136" y="251" type="curve"/>
      <point x="136" y="700" type="line"/>
      <point x="59" y="700" type="line"/>
      <point x="59" y="251" type="line"/>
      <point x="59" y="91"/>
      <point x="152" y="-11"/>
    </contour>
  </outline>
</glyph>
<glyph name="X" format="2">
  <advance width="600"/>
  <unicode hex="0058"/>
  <outline>
    <contour>
      <point x="24" y="0" type="line"/>
      <point x="110" y="0" type="line"/>
      <point x="299" y="300" type="line"/>
      <point x="487" y="0" type="line"/>
      <point x="576" y="0" type="line"/>
      <point x="341" y="365" type="line"/>
      <point x="559" y="700" type="line"/>
      <point x="473" y="700" type="line"/>
      <point x="300" y="427" type="line"/>
      <point x="129" y="700" type="line"/>
      <point x="41" y="700" type="line"/>
      <point x="257" y="362" type="line"/>
    </contour>
  </outline>
</glyph>
<glyph name="Y" format="2">
  <advance width="600"/>
  <unicode hex="0059"/>
  <guideline x="300" y="700" angle="90.0" identifier="u0kcrcG2X0"/>
  <anchor x="300" y="700" name="top"/>
  <outline>
    <contour>
      <point x="261" y="0" type="line"/>
      <point x="338" y="0" type="line"/>
      <point x="338" y="286" type="line"/>
      <point x="577" y="700" type="line"/>
      <point x="497" y="700" type="line"/>
      <point x="302" y="355" type="line"/>
      <point x="107" y="700" type="line"/>
      <point x="23" y="700" type="line"/>
      <point x="261" y="287" type="line"/>
    </contour>
  </outline>
</glyph>
<glyph name="Z" format="2">
  <advance width="600"/>
  <unicode hex="005A"/>
  <guideline x="299" y="700" angle="90.0" identifier="xDkTm3Dn8J"/>
  <anchor x="299" y="700" name="top"/>
  <outline>
    <contour>
      <point x="54" y="0" type="line"/>
      <point x="549" y="0" type="line"/>
      <point x="549" y="67" type="line"/>
      <point x="149" y="65" type="line"/>
      <point x="541" y="646" type="line"/>
      <point x="541" y="700" type="line"/>
      <point x="57" y="700" type="line"/>
      <point x="57" y="633" type="line"/>
      <point x="446" y="635" type="line"/>
      <point x="54" y="54" type="line"/>
    </contour>
  </outline>
</glyph>
<glyph name="bracketleft" format="2">
  <advance width="600"/>
  <unicode hex="005B"/>
  <outline>
    <contour>
      <point x="181" y="-215" type="line"/>
      <point x="472" y="-215" type="line"/>
      <point x="472" y="-155" type="line"/>
      <point x="251" y="-155" type="line"/>
      <point x="251" y="640" type="line"/>
      <point x="472" y="640" type="line"/>
      <point x="472" y="700" type="line"/>
      <point x="181" y="700" type="line"/>
    </contour>
  </outline>
</glyph>
<glyph name="backslash" format="2">
  <advance width="600"/>
  <unicode hex="005C"/>
  <outline>
    <contour>
      <point x="487" y="-209" type="line"/>
      <point x="563" y="-209" type="line"/>
      <point x="163" y="700" type="line"/>
      <point x="87" y="700" type="line"/>
    </contour>
  </outline>
</glyph>
<glyph name="asciicircum" format="2">
  <advance width="600"/>
  <unicode hex="005E"/>
  <outline>
    <contour>
      <point x="91" y="350" type="line"/>
      <point x="157" y="350" type="line"/>
      <point x="300" y="634" type="line"/>
      <point x="443" y="350" type="line"/>
      <point x="509" y="350" type="line"/>
      <point x="332" y="700" type="line"/>
      <point x="268" y="700" type="line"/>
    </contour>
  </outline>
</glyph>
<glyph name="underscore" format="2">
  <advance width="600"/>
  <unicode hex="005F"/>
  <outline>
    <contour>
      <point x="70" y="-137" type="line"/>
      <point x="530" y="-137" type="line"/>
      <point x="530" y="-80" type="line"/>
      <point x="70" y="-80" type="line"/>
    </contour>
  </outline>
</glyph>
<glyph name="a" format="2">
  <advance width="600"/>
  <unicode hex="0061"/>
  <anchor x="287" y="488" name="top"/>
  <anchor x="488" y="0" name="bottom"/>
  <outline>
    <contour>
      <point x="256" y="-10" type="curve" smooth="yes"/>
      <point x="318" y="-10"/>
      <point x="371" y="11"/>
      <point x="416" y="56" type="curve"/>
      <point x="416" y="0" type="line"/>
      <point x="488" y="0" type="line"/>
      <point x="488" y="314" type="line" smooth="yes"/>
      <point x="488" y="431"/>
      <point x="418" y="496"/>
      <point x="294" y="496" type="curve" smooth="yes"/>
      <point x="231" y="496"/>
      <point x="168" y="481"/>
      <point x="98" y="443" type="curve"/>
      <point x="128" y="388" type="line"/>
      <point x="189" y="423"/>
      <point x="236" y="435"/>
      <point x="285" y="435" type="curve" smooth="yes"/>
      <point x="371" y="435"/>
      <point x="416" y="391"/>
      <point x="416" y="304" type="curve" smooth="yes"/>
      <point x="416" y="248" type="line"/>
      <point x="371" y="274"/>
      <point x="320" y="285"/>
      <point x="262" y="285" type="curve" smooth="yes"/>
      <point x="149" y="285"/>
      <point x="74" y="227"/>
      <point x="74" y="139" type="curve" smooth="yes"/>
      <point x="74" y="51"/>
      <point x="149" y="-10"/>
    </contour>
    <contour>
      <point x="144" y="141" type="curve" smooth="yes"/>
      <point x="144" y="196"/>
      <point x="195" y="232"/>
      <point x="273" y="232" type="curve" smooth="yes"/>
      <point x="329" y="232"/>
      <point x="374" y="222"/>
      <point x="416" y="197" type="curve"/>
      <point x="416" y="103" type="line"/>
      <point x="375" y="63"/>
      <point x="328" y="46"/>
      <point x="271" y="46" type="curve"/>
      <point x="195" y="46"/>
      <point x="144" y="84"/>
    </contour>
  </outline>
</glyph>
<glyph name="j" format="2">
  <advance width="600"/>
  <unicode hex="006A"/>
  <outline>
    <contour>
      <point x="385" y="604" type="curve" smooth="yes"/>
      <point x="420" y="604"/>
      <point x="448" y="632"/>
      <point x="448" y="666" type="curve" smooth="yes"/>
      <point x="448" y="700"/>
      <point x="420" y="728"/>
      <point x="385" y="728" type="curve" smooth="yes"/>
      <point x="350" y="728"/>
      <point x="322" y="700"/>
      <point x="322" y="666" type="curve" smooth="yes"/>
      <point x="322" y="632"/>
      <point x="350" y="604"/>
    </contour>
    <contour>
      <point x="233" y="-219" type="curve" smooth="yes"/>
      <point x="357" y="-219"/>
      <point x="421" y="-165"/>
      <point x="421" y="-59" type="curve" smooth="yes"/>
      <point x="421" y="488" type="line"/>
      <point x="97" y="488" type="line"/>
      <point x="97" y="428" type="line"/>
      <point x="348" y="428" type="line"/>
      <point x="348" y="-46" type="line" smooth="yes"/>
      <point x="348" y="-123"/>
      <point x="311" y="-154"/>
      <point x="243" y="-154" type="curve" smooth="yes"/>
      <point x="191" y="-154"/>
      <point x="154" y="-147"/>
      <point x="97" y="-124" type="curve"/>
      <point x="97" y="-193" type="line"/>
      <point x="143" y="-209"/>
      <point x="189" y="-219"/>
    </contour>
  </outline>
</glyph>
<glyph name="k" format="2">
  <advance width="600"/>
  <unicode hex="006B"/>
  <anchor x="306" y="0" name="bottom"/>
  <outline>
    <contour>
      <point x="113" y="0" type="line"/>
      <point x="186" y="0" type="line"/>
      <point x="186" y="238" type="line"/>
      <point x="449" y="0" type="line"/>
      <point x="547" y="0" type="line"/>
      <point x="266" y="254" type="line"/>
      <point x="536" y="488" type="line"/>
      <point x="444" y="488" type="line"/>
      <point x="186" y="263" type="line"/>
      <point x="186" y="737" type="line"/>
      <point x="113" y="722" type="line"/>
    </contour>
  </outline>
</glyph>
<glyph name="l" format="2">
  <advance width="600"/>
  <unicode hex="006C"/>
  <anchor x="290" y="700" name="top"/>
  <anchor x="380" y="0" name="bottom"/>
  <outline>
    <contour>
      <point x="415" y="-10" type="curve" smooth="yes"/>
      <point x="452" y="-10"/>
      <point x="490" y="-1"/>
      <point x="529" y="13" type="curve"/>
      <point x="529" y="79" type="line"/>
      <point x="485" y="62"/>
      <point x="450" y="55"/>
      <point x="416" y="55" type="curve" smooth="yes"/>
      <point x="359" y="55"/>
      <point x="329" y="80"/>
      <point x="329" y="141" type="curve" smooth="yes"/>
      <point x="329" y="727" type="line"/>
      <point x="75" y="727" type="line"/>
      <point x="75" y="667" type="line"/>
      <point x="256" y="667" type="line"/>
      <point x="256" y="134" type="line" smooth="yes"/>
      <point x="256" y="38"/>
      <point x="312" y="-10"/>
    </contour>
  </outline>
</glyph>
<glyph name="n" format="2">
  <advance width="600"/>
  <unicode hex="006E"/>
  <anchor x="300" y="488" name="top"/>
  <anchor x="300" y="0" name="bottom"/>
  <outline>
    <contour>
      <point x="99" y="0" type="line"/>
      <point x="172" y="0" type="line"/>
      <point x="172" y="360" type="line"/>
      <point x="201" y="409"/>
      <point x="246" y="435"/>
      <point x="300" y="435" type="curve" smooth="yes"/>
      <point x="380" y="435"/>
      <point x="431" y="381"/>
      <point x="431" y="295" type="curve" smooth="yes"/>
      <point x="431" y="0" type="line"/>
      <point x="504" y="0" type="line"/>
      <point x="504" y="316" type="line" smooth="yes"/>
      <point x="504" y="423"/>
      <point x="432" y="496"/>
      <point x="327" y="496" type="curve" smooth="yes"/>
      <point x="262" y="496"/>
      <point x="209" y="467"/>
      <point x="172" y="409" type="curve"/>
      <point x="172" y="488" type="line"/>
      <point x="99" y="488" type="line"/>
    </contour>
  </outline>
</glyph>
<glyph name="p" format="2">
  <advance width="600"/>
  <unicode hex="0070"/>
  <outline>
    <contour>
      <point x="90" y="-209" type="line"/>
      <point x="163" y="-209" type="line"/>
      <point x="163" y="61" type="line"/>
      <point x="201" y="17"/>
      <point x="255" y="-7"/>
      <point x="316" y="-7" type="curve"/>
      <point x="445" y="-7"/>
      <point x="545" y="103"/>
      <point x="545" y="244" type="curve" smooth="yes"/>
      <point x="545" y="384"/>
      <point x="447" y="494"/>
      <point x="320" y="494" type="curve"/>
      <point x="255" y="494"/>
      <point x="199" y="467"/>
      <point x="162" y="418" type="curve"/>
      <point x="162" y="488" type="line"/>
      <point x="90" y="488" type="line"/>
    </contour>
    <contour>
      <point x="302" y="56" type="curve"/>
      <point x="246" y="56"/>
      <point x="195" y="81"/>
      <point x="163" y="124" type="curve"/>
      <point x="163" y="363" type="line"/>
      <point x="194" y="406"/>
      <point x="244" y="430"/>
      <point x="302" y="430" type="curve"/>
      <point x="400" y="430"/>
      <point x="473" y="350"/>
      <point x="473" y="243" type="curve" smooth="yes"/>
      <point x="473" y="136"/>
      <point x="400" y="56"/>
    </contour>
  </outline>
</glyph>
<glyph name="q" format="2">
  <advance width="600"/>
  <unicode hex="0071"/>
  <outline>
    <contour>
      <point x="280" y="-7" type="curve" smooth="yes"/>
      <point x="344" y="-7"/>
      <point x="399" y="18"/>
      <point x="436" y="65" type="curve"/>
      <point x="436" y="-209" type="line"/>
      <point x="509" y="-209" type="line"/>
      <point x="509" y="488" type="line"/>
      <point x="436" y="488" type="line"/>
      <point x="436" y="426" type="line"/>
      <point x="397" y="470"/>
      <point x="344" y="494"/>
      <point x="284" y="494" type="curve" smooth="yes"/>
      <point x="155" y="494"/>
      <point x="55" y="384"/>
      <point x="55" y="243" type="curve" smooth="yes"/>
      <point x="55" y="103"/>
      <point x="153" y="-7"/>
    </contour>
    <contour>
      <point x="298" y="57" type="curve" smooth="yes"/>
      <point x="200" y="57"/>
      <point x="127" y="137"/>
      <point x="127" y="244" type="curve" smooth="yes"/>
      <point x="127" y="351"/>
      <point x="200" y="430"/>
      <point x="298" y="430" type="curve" smooth="yes"/>
      <point x="353" y="430"/>
      <point x="404" y="405"/>
      <point x="436" y="364" type="curve"/>
      <point x="436" y="122" type="line"/>
      <point x="405" y="80"/>
      <point x="355" y="57"/>
    </contour>
  </outline>
</glyph>
<glyph name="r" format="2">
  <advance width="600"/>
  <unicode hex="0072"/>
  <anchor x="372" y="488" name="top"/>
  <anchor x="265" y="0" name="bottom"/>
  <outline>
    <contour>
      <point x="93" y="0" type="line"/>
      <point x="442" y="0" type="line"/>
      <point x="442" y="60" type="line"/>
      <point x="300" y="60" type="line"/>
      <point x="300" y="324" type="line"/>
      <point x="329" y="393"/>
      <point x="388" y="432"/>
      <point x="460" y="432" type="curve" smooth="yes"/>
      <point x="489" y="432"/>
      <point x="519" y="425"/>
      <point x="552" y="414" type="curve"/>
      <point x="552" y="481" type="line"/>
      <point x="519" y="492"/>
      <point x="499" y="496"/>
      <point x="468" y="496" type="curve" smooth="yes"/>
      <point x="390" y="496"/>
      <point x="329" y="453"/>
      <point x="300" y="379" type="curve"/>
      <point x="300" y="488" type="line"/>
      <point x="93" y="488" type="line"/>
      <point x="93" y="428" type="line"/>
      <point x="227" y="428" type="line"/>
      <point x="227" y="60" type="line"/>
      <point x="93" y="60" type="line"/>
    </contour>
  </outline>
</glyph>
<glyph name="s" format="2">
  <advance width="600"/>
  <unicode hex="0073"/>
  <anchor x="285" y="488" name="top"/>
  <anchor x="296" y="0" name="bottom"/>
  <outline>
    <contour>
      <point x="295" y="-10" type="curve" smooth="yes"/>
      <point x="413" y="-10"/>
      <point x="502" y="56"/>
      <point x="502" y="141" type="curve" smooth="yes"/>
      <point x="502" y="344"/>
      <point x="160" y="225"/>
      <point x="160" y="357" type="curve" smooth="yes"/>
      <point x="160" y="404"/>
      <point x="209" y="434"/>
      <point x="283" y="434" type="curve" smooth="yes"/>
      <point x="341" y="434"/>
      <point x="398" y="421"/>
      <point x="453" y="382" type="curve"/>
      <point x="489" y="435" type="line"/>
      <point x="423" y="480"/>
      <point x="359" y="496"/>
      <point x="286" y="496" type="curve" smooth="yes"/>
      <point x="173" y="496"/>
      <point x="93" y="437"/>
      <point x="93" y="352" type="curve" smooth="yes"/>
      <point x="93" y="151"/>
      <point x="433" y="272"/>
      <point x="433" y="137" type="curve" smooth="yes"/>
      <point x="433" y="88"/>
      <point x="374" y="52"/>
      <point x="293" y="52" type="curve" smooth="yes"/>
      <point x="235" y="52"/>
      <point x="181" y="67"/>
      <point x="119" y="113" type="curve"/>
      <point x="80" y="62" type="line"/>
      <point x="131" y="12"/>
      <point x="208" y="-10"/>
    </contour>
  </outline>
</glyph>
<glyph name="u" format="2">
  <advance width="600"/>
  <unicode hex="0075"/>
  <anchor x="300" y="488" name="top"/>
  <anchor x="501" y="0" name="bottom"/>
  <outline>
    <contour>
      <point x="273" y="-8" type="curve" smooth="yes"/>
      <point x="339" y="-8"/>
      <point x="391" y="21"/>
      <point x="428" y="79" type="curve"/>
      <point x="428" y="0" type="line"/>
      <point x="501" y="0" type="line"/>
      <point x="501" y="488" type="line"/>
      <point x="428" y="488" type="line"/>
      <point x="428" y="127" type="line"/>
      <point x="399" y="79"/>
      <point x="354" y="53"/>
      <point x="300" y="53" type="curve" smooth="yes"/>
      <point x="220" y="53"/>
      <point x="170" y="107"/>
      <point x="170" y="194" type="curve" smooth="yes"/>
      <point x="170" y="488" type="line"/>
      <point x="96" y="488" type="line"/>
      <point x="96" y="173" type="line" smooth="yes"/>
      <point x="96" y="66"/>
      <point x="168" y="-8"/>
    </contour>
  </outline>
</glyph>
<glyph name="x" format="2">
  <advance width="600"/>
  <unicode hex="0078"/>
  <outline>
    <contour>
      <point x="58" y="0" type="line"/>
      <point x="141" y="0" type="line"/>
      <point x="297" y="201" type="line"/>
      <point x="455" y="0" type="line"/>
      <point x="542" y="0" type="line"/>
      <point x="344" y="253" type="line"/>
      <point x="533" y="488" type="line"/>
      <point x="450" y="488" type="line"/>
      <point x="301" y="301" type="line"/>
      <point x="154" y="488" type="line"/>
      <point x="67" y="488" type="line"/>
      <point x="255" y="251" type="line"/>
    </contour>
  </outline>
</glyph>
<glyph name="z" format="2">
  <advance width="600"/>
  <unicode hex="007A"/>
  <anchor x="293" y="488" name="top"/>
  <outline>
    <contour>
      <point x="89" y="0" type="line"/>
      <point x="503" y="0" type="line"/>
      <point x="503" y="66" type="line"/>
      <point x="182" y="65" type="line"/>
      <point x="499" y="431" type="line"/>
      <point x="499" y="488" type="line"/>
      <point x="92" y="488" type="line"/>
      <point x="92" y="421" type="line"/>
      <point x="404" y="422" type="line"/>
      <point x="89" y="58" type="line"/>
    </contour>
  </outline>
</glyph>
<glyph name="braceleft" format="2">
  <advance width="600"/>
  <unicode hex="007B"/>
  <outline>
    <contour>
      <point x="342" y="-219" type="curve" smooth="yes"/>
      <point x="377" y="-219"/>
      <point x="422" y="-213"/>
      <point x="466" y="-191" type="curve"/>
      <point x="446" y="-137" type="line"/>
      <point x="406" y="-155"/>
      <point x="375" y="-159"/>
      <point x="343" y="-159" type="curve" smooth="yes"/>
      <point x="296" y="-159"/>
      <point x="267" y="-130"/>
      <point x="267" y="-88" type="curve" smooth="yes"/>
      <point x="267" y="-23"/>
      <point x="352" y="67"/>
      <point x="352" y="134" type="curve" smooth="yes"/>
      <point x="352" y="186"/>
      <point x="315" y="232"/>
      <point x="262" y="246" type="curve"/>
      <point x="314" y="260"/>
      <point x="352" y="306"/>
      <point x="352" y="358" type="curve" smooth="yes"/>
      <point x="352" y="425"/>
      <point x="267" y="515"/>
      <point x="267" y="580" type="curve" smooth="yes"/>
      <point x="267" y="622"/>
      <point x="296" y="651"/>
      <point x="343" y="651" type="curve"/>
      <point x="375" y="651"/>
      <point x="406" y="647"/>
      <point x="446" y="629" type="curve"/>
      <point x="466" y="683" type="line"/>
      <point x="422" y="705"/>
      <point x="377" y="711"/>
      <point x="342" y="711" type="curve"/>
      <point x="258" y="711"/>
      <point x="203" y="654"/>
      <point x="203" y="580" type="curve" smooth="yes"/>
      <point x="203" y="494"/>
      <point x="288" y="415"/>
      <point x="288" y="352" type="curve" smooth="yes"/>
      <point x="288" y="308"/>
      <point x="252" y="277"/>
      <point x="193" y="277" type="curve" smooth="yes"/>
      <point x="114" y="277" type="line"/>
      <point x="114" y="215" type="line"/>
      <point x="193" y="215" type="line" smooth="yes"/>
      <point x="252" y="215"/>
      <point x="288" y="184"/>
      <point x="288" y="140" type="curve" smooth="yes"/>
      <point x="288" y="77"/>
      <point x="203" y="-2"/>
      <point x="203" y="-88" type="curve" smooth="yes"/>
      <point x="203" y="-162"/>
      <point x="258" y="-219"/>
    </contour>
  </outline>
</glyph>
<glyph name="bar" format="2">
  <advance width="600"/>
  <unicode hex="007C"/>
  <outline>
    <contour>
      <point x="266" y="-209" type="line"/>
      <point x="334" y="-209" type="line"/>
      <point x="334" y="700" type="line"/>
      <point x="266" y="700" type="line"/>
    </contour>
  </outline>
</glyph>
<glyph name="section" format="2">
  <advance width="600"/>
  <unicode hex="00A7"/>
  <outline>
    <contour>
      <point x="297" y="-49" type="curve" smooth="yes"/>
      <point x="396" y="-49"/>
      <point x="461" y="5"/>
      <point x="461" y="87" type="curve" smooth="yes"/>
      <point x="461" y="131"/>
      <point x="444" y="165"/>
      <point x="410" y="190" type="curve"/>
      <point x="475" y="209"/>
      <point x="514" y="254"/>
      <point x="514" y="315" type="curve" smooth="yes"/>
      <point x="514" y="388"/>
      <point x="478" y="427"/>
      <point x="380" y="460" type="curve" smooth="yes"/>
      <point x="277" y="496" type="line" smooth="yes"/>
      <point x="227" y="513"/>
      <point x="204" y="538"/>
      <point x="204" y="577" type="curve" smooth="yes"/>
      <point x="204" y="626"/>
      <point x="241" y="656"/>
      <point x="303" y="656" type="curve" smooth="yes"/>
      <point x="343" y="656"/>
      <point x="392" y="640"/>
      <point x="445" y="609" type="curve"/>
      <point x="474" y="662" type="line"/>
      <point x="417" y="693"/>
      <point x="357" y="711"/>
      <point x="303" y="711" type="curve" smooth="yes"/>
      <point x="204" y="711"/>
      <point x="138" y="656"/>
      <point x="138" y="574" type="curve" smooth="yes"/>
      <point x="138" y="530"/>
      <point x="155" y="496"/>
      <point x="189" y="470" type="curve"/>
      <point x="125" y="453"/>
      <point x="86" y="408"/>
      <point x="86" y="346" type="curve" smooth="yes"/>
      <point x="86" y="274"/>
      <point x="122" y="235"/>
      <point x="219" y="202" type="curve" smooth="yes"/>
      <point x="323" y="166" type="line" smooth="yes"/>
      <point x="374" y="149"/>
      <point x="395" y="124"/>
      <point x="395" y="85" type="curve" smooth="yes"/>
      <point x="395" y="36"/>
      <point x="358" y="6"/>
      <point x="297" y="6" type="curve" smooth="yes"/>
      <point x="256" y="6"/>
      <point x="208" y="22"/>
      <point x="155" y="52" type="curve"/>
      <point x="126" y="-1" type="line"/>
      <point x="181" y="-32"/>
      <point x="241" y="-49"/>
    </contour>
    <contour>
      <point x="344" y="224" type="curve" smooth="yes"/>
      <point x="235" y="261" type="line" smooth="yes"/>
      <point x="175" y="283"/>
      <point x="149" y="310"/>
      <point x="149" y="351" type="curve" smooth="yes"/>
      <point x="149" y="401"/>
      <point x="186" y="434"/>
      <point x="245" y="441" type="curve"/>
      <point x="248" y="439"/>
      <point x="252" y="438"/>
      <point x="255" y="437" type="curve" smooth="yes"/>
      <point x="365" y="400" type="line" smooth="yes"/>
      <point x="424" y="379"/>
      <point x="451" y="352"/>
      <point x="451" y="310" type="curve" smooth="yes"/>
      <point x="451" y="262"/>
      <point x="413" y="228"/>
      <point x="354" y="220" type="curve"/>
      <point x="351" y="222"/>
      <point x="347" y="223"/>
    </contour>
  </outline>
</glyph>
<glyph name="guillemotleft" format="2">
  <advance width="600"/>
  <unicode hex="00AB"/>
  <outline>
    <contour>
      <point x="263" y="0" type="line"/>
      <point x="343" y="0" type="line"/>
      <point x="126" y="246" type="line"/>
      <point x="343" y="488" type="line"/>
      <point x="266" y="488" type="line"/>
      <point x="43" y="245" type="line"/>
    </contour>
    <contour>
      <point x="487" y="0" type="line"/>
      <point x="567" y="0" type="line"/>
      <point x="350" y="246" type="line"/>
      <point x="567" y="488" type="line"/>
      <point x="490" y="488" type="line"/>
      <point x="267" y="245" type="line"/>
    </contour>
  </outline>
</glyph>
<glyph name="uni00AC" format="2">
  <advance width="600"/>
  <unicode hex="00AC"/>
  <outline>
    <contour>
      <point x="462" y="0" type="line"/>
      <point x="524" y="0" type="line"/>
      <point x="524" y="314" type="line"/>
      <point x="76" y="314" type="line"/>
      <point x="76" y="254" type="line"/>
      <point x="462" y="254" type="line"/>
    </contour>
  </outline>
</glyph>
<glyph name="registered" format="2">
  <advance width="600"/>
  <unicode hex="00AE"/>
  <outline>
    <contour>
      <point x="300" y="309" type="curve" smooth="yes"/>
      <point x="407" y="309"/>
      <point x="490" y="397"/>
      <point x="490" y="510" type="curve" smooth="yes"/>
      <point x="490" y="623"/>
      <point x="407" y="711"/>
      <point x="300" y="711" type="curve" smooth="yes"/>
      <point x="193" y="711"/>
      <point x="110" y="623"/>
      <point x="110" y="510" type="curve" smooth="yes"/>
      <point x="110" y="397"/>
      <point x="193" y="309"/>
    </contour>
    <contour>
      <point x="300" y="343" type="curve" smooth="yes"/>
      <point x="212" y="343"/>
      <point x="146" y="414"/>
      <point x="146" y="510" type="curve" smooth="yes"/>
      <point x="146" y="606"/>
      <point x="212" y="677"/>
      <point x="300" y="677" type="curve" smooth="yes"/>
      <point x="388" y="677"/>
      <point x="454" y="606"/>
      <point x="454" y="510" type="curve" smooth="yes"/>
      <point x="454" y="414"/>
      <point x="388" y="343"/>
    </contour>
    <contour>
      <point x="237" y="417" type="line"/>
      <point x="270" y="417" type="line"/>
      <point x="270" y="488" type="line"/>
      <point x="304" y="488" type="line"/>
      <point x="344" y="417" type="line"/>
      <point x="380" y="417" type="line"/>
      <point x="335" y="495" type="line"/>
      <point x="356" y="505"/>
      <point x="368" y="525"/>
      <point x="368" y="547" type="curve" smooth="yes"/>
      <point x="368" y="583"/>
      <point x="346" y="605"/>
      <point x="309" y="605" type="curve" smooth="yes"/>
      <point x="237" y="605" type="line"/>
    </contour>
    <contour>
      <point x="304" y="577" type="line" smooth="yes"/>
      <point x="325" y="577"/>
      <point x="336" y="566"/>
      <point x="336" y="546" type="curve" smooth="yes"/>
      <point x="336" y="526"/>
      <point x="324" y="514"/>
      <point x="304" y="514" type="curve" smooth="yes"/>
      <point x="270" y="514" type="line"/>
      <point x="270" y="577" type="line"/>
    </contour>
  </outline>
</glyph>
<glyph name="macron" format="2">
  <advance width="600"/>
  <unicode hex="00AF"/>
  <anchor x="300" y="488" name="_top"/>
  <outline>
    <contour>
      <point x="164" y="631" type="line"/>
      <point x="437" y="631" type="line"/>
      <point x="437" y="683" type="line"/>
      <point x="164" y="683" type="line"/>
    </contour>
  </outline>
</glyph>
<glyph name="uni00B5" format="2">
  <advance width="600"/>
  <unicode hex="00B5"/>
  <outline>
    <contour>
      <point x="99" y="-209" type="line"/>
      <point x="172" y="-209" type="line"/>
      <point x="172" y="26" type="line"/>
      <point x="200" y="4"/>
      <point x="235" y="-8"/>
      <point x="276" y="-8" type="curve" smooth="yes"/>
      <point x="341" y="-8"/>
      <point x="394" y="21"/>
      <point x="431" y="79" type="curve"/>
      <point x="431" y="0" type="line"/>
      <point x="504" y="0" type="line"/>
      <point x="504" y="488" type="line"/>
      <point x="431" y="488" type="line"/>
      <point x="431" y="128" type="line"/>
      <point x="402" y="79"/>
      <point x="357" y="53"/>
      <point x="303" y="53" type="curve" smooth="yes"/>
      <point x="223" y="53"/>
      <point x="172" y="107"/>
      <point x="172" y="193" type="curve"/>
      <point x="172" y="488" type="line"/>
      <point x="99" y="488" type="line"/>
    </contour>
  </outline>
</glyph>
<glyph name="cedilla" format="2">
  <advance width="600"/>
  <unicode hex="00B8"/>
  <guideline x="300" y="0" angle="0.0" color="0.999,0.001,0.001,0.999" identifier="4RmmuUlyDz"/>
  <outline>
    <contour>
      <point x="292" y="-239" type="curve" smooth="yes"/>
      <point x="357" y="-239"/>
      <point x="403" y="-200"/>
      <point x="403" y="-146" type="curve" smooth="yes"/>
      <point x="403" y="-99"/>
      <point x="365" y="-69"/>
      <point x="306" y="-66" type="curve"/>
      <point x="321" y="0" type="line"/>
      <point x="279" y="0" type="line"/>
      <point x="254" y="-99" type="line"/>
      <point x="283" y="-99" type="line" smooth="yes"/>
      <point x="328" y="-99"/>
      <point x="354" y="-117"/>
      <point x="354" y="-148" type="curve" smooth="yes"/>
      <point x="354" y="-180"/>
      <point x="330" y="-200"/>
      <point x="289" y="-200" type="curve" smooth="yes"/>
      <point x="260" y="-200"/>
      <point x="233" y="-190"/>
      <point x="210" y="-171" type="curve"/>
      <point x="182" y="-203" type="line"/>
      <point x="209" y="-227"/>
      <point x="247" y="-239"/>
    </contour>
  </outline>
</glyph>
<glyph name="onehalf" format="2">
  <advance width="600"/>
  <unicode hex="00BD"/>
  <outline>
    <contour>
      <point x="115" y="416" type="line"/>
      <point x="165" y="416" type="line"/>
      <point x="165" y="700" type="line"/>
      <point x="134" y="700" type="line"/>
      <point x="61" y="670" type="line"/>
      <point x="61" y="626" type="line"/>
      <point x="115" y="647" type="line"/>
    </contour>
    <contour>
      <point x="347" y="0" type="line"/>
      <point x="546" y="0" type="line"/>
      <point x="546" y="43" type="line"/>
      <point x="413" y="43" type="line"/>
      <point x="495" y="120" type="line" smooth="yes"/>
      <point x="529" y="152"/>
      <point x="542" y="174"/>
      <point x="542" y="205" type="curve" smooth="yes"/>
      <point x="542" y="252"/>
      <point x="502" y="288"/>
      <point x="443" y="288" type="curve" smooth="yes"/>
      <point x="405" y="288"/>
      <point x="370" y="271"/>
      <point x="338" y="243" type="curve"/>
      <point x="366" y="209" type="line"/>
      <point x="396" y="237"/>
      <point x="417" y="243"/>
      <point x="442" y="243" type="curve" smooth="yes"/>
      <point x="472" y="243"/>
      <point x="494" y="225"/>
      <point x="494" y="201" type="curve"/>
      <point x="494" y="181"/>
      <point x="485" y="167"/>
      <point x="461" y="144" type="curve" smooth="yes"/>
      <point x="347" y="36" type="line"/>
    </contour>
    <component base="fraction"/>
  </outline>
</glyph>
<glyph name="AE" format="2">
  <advance width="600"/>
  <unicode hex="00C6"/>
  <outline>
    <contour>
      <point x="6" y="0" type="line"/>
      <point x="83" y="0" type="line"/>
      <point x="138" y="170" type="line"/>
      <point x="281" y="170" type="line"/>
      <point x="281" y="0" type="line"/>
      <point x="570" y="0" type="line"/>
      <point x="570" y="67" type="line"/>
      <point x="356" y="67" type="line"/>
      <point x="356" y="320" type="line"/>
      <point x="493" y="320" type="line"/>
      <point x="493" y="387" type="line"/>
      <point x="356" y="387" type="line"/>
      <point x="356" y="633" type="line"/>
      <point x="566" y="633" type="line"/>
      <point x="566" y="700" type="line"/>
      <point x="241" y="700" type="line"/>
    </contour>
    <contour>
      <point x="158" y="231" type="line"/>
      <point x="281" y="611" type="line"/>
      <point x="281" y="231" type="line"/>
    </contour>
  </outline>
</glyph>
<glyph name="Oslash" format="2">
  <advance width="600"/>
  <unicode hex="00D8"/>
  <outline>
    <contour>
      <point x="300" y="-11" type="curve" smooth="yes"/>
      <point x="440" y="-11"/>
      <point x="563" y="118"/>
      <point x="563" y="350" type="curve" smooth="yes"/>
      <point x="563" y="450"/>
      <point x="540" y="532"/>
      <point x="502" y="591" type="curve"/>
      <point x="577" y="700" type="line"/>
      <point x="503" y="700" type="line"/>
      <point x="463" y="641" type="line"/>
      <point x="417" y="687"/>
      <point x="360" y="711"/>
      <point x="300" y="711" type="curve" smooth="yes"/>
      <point x="160" y="711"/>
      <point x="37" y="582"/>
      <point x="37" y="350" type="curve" smooth="yes"/>
      <point x="37" y="250"/>
      <point x="60" y="168"/>
      <point x="98" y="109" type="curve"/>
      <point x="23" y="0" type="line"/>
      <point x="97" y="0" type="line"/>
      <point x="137" y="59" type="line"/>
      <point x="183" y="13"/>
      <point x="240" y="-11"/>
    </contour>
    <contour>
      <point x="145" y="179" type="line"/>
      <point x="126" y="224"/>
      <point x="115" y="282"/>
      <point x="115" y="350" type="curve" smooth="yes"/>
      <point x="115" y="534"/>
      <point x="196" y="641"/>
      <point x="300" y="641" type="curve" smooth="yes"/>
      <point x="346" y="641"/>
      <point x="388" y="620"/>
      <point x="420" y="580" type="curve"/>
    </contour>
    <contour>
      <point x="300" y="59" type="curve" smooth="yes"/>
      <point x="254" y="59"/>
      <point x="212" y="80"/>
      <point x="180" y="120" type="curve"/>
      <point x="455" y="521" type="line"/>
      <point x="474" y="476"/>
      <point x="485" y="418"/>
      <point x="485" y="350" type="curve" smooth="yes"/>
      <point x="485" y="166"/>
      <point x="404" y="59"/>
    </contour>
  </outline>
</glyph>
<glyph name="ae" format="2">
  <advance width="600"/>
  <unicode hex="00E6"/>
  <outline>
    <contour>
      <point x="171" y="-10" type="curve" smooth="yes"/>
      <point x="218" y="-10"/>
      <point x="256" y="11"/>
      <point x="295" y="59" type="curve"/>
      <point x="328" y="16"/>
      <point x="375" y="-10"/>
      <point x="434" y="-10" type="curve" smooth="yes"/>
      <point x="484" y="-10"/>
      <point x="528" y="7"/>
      <point x="571" y="42" type="curve"/>
      <point x="532" y="94" type="line"/>
      <point x="502" y="69"/>
      <point x="465" y="54"/>
      <point x="433" y="54" type="curve" smooth="yes"/>
      <point x="361" y="54"/>
      <point x="313" y="128"/>
      <point x="308" y="228" type="curve"/>
      <point x="571" y="228" type="line"/>
      <point x="571" y="253" type="line" smooth="yes"/>
      <point x="571" y="399"/>
      <point x="509" y="496"/>
      <point x="417" y="496" type="curve" smooth="yes"/>
      <point x="365" y="496"/>
      <point x="323" y="468"/>
      <point x="292" y="418" type="curve"/>
      <point x="274" y="469"/>
      <point x="232" y="496"/>
      <point x="172" y="496" type="curve" smooth="yes"/>
      <point x="127" y="496"/>
      <point x="78" y="478"/>
      <point x="30" y="441" type="curve"/>
      <point x="65" y="391" type="line"/>
      <point x="109" y="426"/>
      <point x="136" y="435"/>
      <point x="172" y="435" type="curve" smooth="yes"/>
      <point x="215" y="435"/>
      <point x="238" y="402"/>
      <point x="238" y="338" type="curve" smooth="yes"/>
      <point x="238" y="274" type="line"/>
      <point x="221" y="280"/>
      <point x="203" y="283"/>
      <point x="183" y="283" type="curve" smooth="yes"/>
      <point x="89" y="283"/>
      <point x="29" y="224"/>
      <point x="29" y="134" type="curve" smooth="yes"/>
      <point x="29" y="49"/>
      <point x="86" y="-10"/>
    </contour>
    <contour>
      <point x="310" y="280" type="line"/>
      <point x="318" y="371"/>
      <point x="357" y="434"/>
      <point x="414" y="434" type="curve" smooth="yes"/>
      <point x="466" y="434"/>
      <point x="501" y="376"/>
      <point x="506" y="280" type="curve"/>
    </contour>
    <contour>
      <point x="174" y="46" type="curve" smooth="yes"/>
      <point x="126" y="46"/>
      <point x="95" y="87"/>
      <point x="95" y="135" type="curve" smooth="yes"/>
      <point x="95" y="195"/>
      <point x="135" y="232"/>
      <point x="190" y="232" type="curve" smooth="yes"/>
      <point x="210" y="232"/>
      <point x="226" y="229"/>
      <point x="242" y="223" type="curve"/>
      <point x="244" y="177"/>
      <point x="254" y="135"/>
      <point x="270" y="100" type="curve"/>
      <point x="239" y="62"/>
      <point x="210" y="46"/>
    </contour>
  </outline>
</glyph>
<glyph name="ccedilla" format="2">
  <advance width="600"/>
  <unicode hex="00E7"/>
  <outline>
    <contour>
      <point x="298" y="-239" type="curve" smooth="yes"/>
      <point x="363" y="-239"/>
      <point x="409" y="-200"/>
      <point x="409" y="-146" type="curve" smooth="yes"/>
      <point x="409" y="-99"/>
      <point x="371" y="-69"/>
      <point x="312" y="-66" type="curve"/>
      <point x="325" y="-9" type="line"/>
      <point x="408" y="-4"/>
      <point x="478" y="37"/>
      <point x="518" y="101" type="curve"/>
      <point x="459" y="138" type="line"/>
      <point x="428" y="87"/>
      <point x="373" y="55"/>
      <point x="308" y="55" type="curve" smooth="yes"/>
      <point x="208" y="55"/>
      <point x="135" y="134"/>
      <point x="135" y="243" type="curve" smooth="yes"/>
      <point x="135" y="352"/>
      <point x="208" y="431"/>
      <point x="308" y="431" type="curve" smooth="yes"/>
      <point x="373" y="431"/>
      <point x="428" y="399"/>
      <point x="459" y="348" type="curve"/>
      <point x="518" y="385" type="line"/>
      <point x="475" y="453"/>
      <point x="398" y="496"/>
      <point x="308" y="496" type="curve" smooth="yes"/>
      <point x="170" y="496"/>
      <point x="63" y="387"/>
      <point x="63" y="243" type="curve" smooth="yes"/>
      <point x="63" y="108"/>
      <point x="157" y="4"/>
      <point x="283" y="-9" type="curve"/>
      <point x="260" y="-99" type="line"/>
      <point x="289" y="-99" type="line" smooth="yes"/>
      <point x="334" y="-99"/>
      <point x="360" y="-117"/>
      <point x="360" y="-148" type="curve" smooth="yes"/>
      <point x="360" y="-180"/>
      <point x="336" y="-200"/>
      <point x="295" y="-200" type="curve" smooth="yes"/>
      <point x="266" y="-200"/>
      <point x="239" y="-190"/>
      <point x="216" y="-171" type="curve"/>
      <point x="188" y="-203" type="line"/>
      <point x="215" y="-227"/>
      <point x="253" y="-239"/>
    </contour>
  </outline>
</glyph>
<glyph name="divide" format="2">
  <advance width="600"/>
  <unicode hex="00F7"/>
  <outline>
    <contour>
      <point x="300" y="121" type="curve" smooth="yes"/>
      <point x="329" y="121"/>
      <point x="353" y="145"/>
      <point x="353" y="174" type="curve" smooth="yes"/>
      <point x="353" y="203"/>
      <point x="329" y="227"/>
      <point x="300" y="227" type="curve" smooth="yes"/>
      <point x="271" y="227"/>
      <point x="247" y="203"/>
      <point x="247" y="174" type="curve" smooth="yes"/>
      <point x="247" y="145"/>
      <point x="271" y="121"/>
    </contour>
    <contour>
      <point x="300" y="489" type="curve" smooth="yes"/>
      <point x="329" y="489"/>
      <point x="353" y="513"/>
      <point x="353" y="542" type="curve" smooth="yes"/>
      <point x="353" y="571"/>
      <point x="329" y="595"/>
      <point x="300" y="595" type="curve" smooth="yes"/>
      <point x="271" y="595"/>
      <point x="247" y="571"/>
      <point x="247" y="542" type="curve" smooth="yes"/>
      <point x="247" y="513"/>
      <point x="271" y="489"/>
    </contour>
    <contour>
      <point x="102" y="328" type="line"/>
      <point x="498" y="328" type="line"/>
      <point x="498" y="388" type="line"/>
      <point x="102" y="388" type="line"/>
    </contour>
  </outline>
</glyph>
<glyph name="thorn" format="2">
  <advance width="600"/>
  <unicode hex="00FE"/>
  <outline>
    <contour>
      <point x="90" y="-209" type="line"/>
      <point x="163" y="-209" type="line"/>
      <point x="163" y="61" type="line"/>
      <point x="201" y="17"/>
      <point x="255" y="-7"/>
      <point x="316" y="-7" type="curve" smooth="yes"/>
      <point x="445" y="-7"/>
      <point x="545" y="103"/>
      <point x="545" y="244" type="curve" smooth="yes"/>
      <point x="545" y="384"/>
      <point x="447" y="494"/>
      <point x="320" y="494" type="curve" smooth="yes"/>
      <point x="255" y="494"/>
      <point x="200" y="467"/>
      <point x="163" y="420" type="curve"/>
      <point x="163" y="737" type="line"/>
      <point x="90" y="722" type="line"/>
    </contour>
    <contour>
      <point x="302" y="430" type="curve" smooth="yes"/>
      <point x="400" y="430"/>
      <point x="473" y="350"/>
      <point x="473" y="243" type="curve" smooth="yes"/>
      <point x="473" y="136"/>
      <point x="400" y="56"/>
      <point x="302" y="56" type="curve" smooth="yes"/>
      <point x="246" y="56"/>
      <point x="195" y="81"/>
      <point x="163" y="124" type="curve"/>
      <point x="163" y="363" type="line"/>
      <point x="194" y="406"/>
      <point x="244" y="430"/>
    </contour>
  </outline>
</glyph>
<glyph name="Aogonek" format="2">
  <advance width="600"/>
  <unicode hex="0104"/>
  <outline>
    <contour>
      <point x="16" y="0" type="line"/>
      <point x="95" y="0" type="line"/>
      <point x="158" y="195" type="line"/>
      <point x="439" y="195" type="line"/>
      <point x="503" y="0" type="line"/>
      <point x="529" y="0" type="line"/>
      <point x="459" y="-50"/>
      <point x="430" y="-91"/>
      <point x="430" y="-140" type="curve" smooth="yes"/>
      <point x="430" y="-195"/>
      <point x="472" y="-231"/>
      <point x="536" y="-231" type="curve" smooth="yes"/>
      <point x="563" y="-231"/>
      <point x="590" y="-224"/>
      <point x="609" y="-212" type="curve"/>
      <point x="595" y="-173" type="line"/>
      <point x="583" y="-181"/>
      <point x="564" y="-185"/>
      <point x="547" y="-185" type="curve" smooth="yes"/>
      <point x="505" y="-185"/>
      <point x="480" y="-164"/>
      <point x="480" y="-128" type="curve" smooth="yes"/>
      <point x="480" y="-87"/>
      <point x="512" y="-47"/>
      <point x="584" y="0" type="curve"/>
      <point x="348" y="700" type="line"/>
      <point x="251" y="700" type="line"/>
    </contour>
    <contour>
      <point x="178" y="256" type="line"/>
      <point x="298" y="626" type="line"/>
      <point x="419" y="256" type="line"/>
    </contour>
  </outline>
</glyph>
<glyph name="Dcroat" format="2">
  <advance width="600"/>
  <unicode hex="0110"/>
  <outline>
    <contour>
      <point x="94" y="0" type="line"/>
      <point x="278" y="0" type="line" smooth="yes"/>
      <point x="428" y="0"/>
      <point x="556" y="125"/>
      <point x="556" y="350" type="curve" smooth="yes"/>
      <point x="556" y="575"/>
      <point x="428" y="700"/>
      <point x="278" y="700" type="curve" smooth="yes"/>
      <point x="94" y="700" type="line"/>
      <point x="94" y="383" type="line"/>
      <point x="15" y="383" type="line"/>
      <point x="15" y="322" type="line"/>
      <point x="94" y="322" type="line"/>
    </contour>
    <contour>
      <point x="171" y="67" type="line"/>
      <point x="171" y="322" type="line"/>
      <point x="289" y="322" type="line"/>
      <point x="289" y="383" type="line"/>
      <point x="171" y="383" type="line"/>
      <point x="171" y="633" type="line"/>
      <point x="268" y="633" type="line" smooth="yes"/>
      <point x="388" y="633"/>
      <point x="478" y="529"/>
      <point x="478" y="350" type="curve" smooth="yes"/>
      <point x="478" y="171"/>
      <point x="388" y="67"/>
      <point x="268" y="67" type="curve" smooth="yes"/>
    </contour>
  </outline>
</glyph>
<glyph name="Eogonek" format="2">
  <advance width="600"/>
  <unicode hex="0118"/>
  <outline>
    <contour>
      <point x="97" y="0" type="line"/>
      <point x="484" y="0" type="line"/>
      <point x="414" y="-50"/>
      <point x="385" y="-91"/>
      <point x="385" y="-140" type="curve" smooth="yes"/>
      <point x="385" y="-195"/>
      <point x="427" y="-231"/>
      <point x="491" y="-231" type="curve" smooth="yes"/>
      <point x="518" y="-231"/>
      <point x="545" y="-224"/>
      <point x="564" y="-212" type="curve"/>
      <point x="550" y="-173" type="line"/>
      <point x="538" y="-181"/>
      <point x="519" y="-185"/>
      <point x="502" y="-185" type="curve" smooth="yes"/>
      <point x="460" y="-185"/>
      <point x="435" y="-164"/>
      <point x="435" y="-128" type="curve" smooth="yes"/>
      <point x="435" y="-87"/>
      <point x="467" y="-47"/>
      <point x="539" y="0" type="curve"/>
      <point x="539" y="67" type="line"/>
      <point x="174" y="67" type="line"/>
      <point x="174" y="320" type="line"/>
      <point x="412" y="320" type="line"/>
      <point x="412" y="387" type="line"/>
      <point x="174" y="387" type="line"/>
      <point x="174" y="633" type="line"/>
      <point x="535" y="633" type="line"/>
      <point x="535" y="700" type="line"/>
      <point x="97" y="700" type="line"/>
    </contour>
  </outline>
</glyph>
<glyph name="Hbar" format="2">
  <advance width="600"/>
  <unicode hex="0126"/>
  <outline>
    <contour>
      <point x="72" y="0" type="line"/>
      <point x="149" y="0" type="line"/>
      <point x="149" y="319" type="line"/>
      <point x="451" y="319" type="line"/>
      <point x="451" y="0" type="line"/>
      <point x="528" y="0" type="line"/>
      <point x="528" y="521" type="line"/>
      <point x="595" y="521" type="line"/>
      <point x="595" y="582" type="line"/>
      <point x="528" y="582" type="line"/>
      <point x="528" y="700" type="line"/>
      <point x="451" y="700" type="line"/>
      <point x="451" y="582" type="line"/>
      <point x="149" y="582" type="line"/>
      <point x="149" y="700" type="line"/>
      <point x="72" y="700" type="line"/>
      <point x="72" y="582" type="line"/>
      <point x="5" y="582" type="line"/>
      <point x="5" y="521" type="line"/>
      <point x="72" y="521" type="line"/>
    </contour>
    <contour>
      <point x="149" y="386" type="line"/>
      <point x="149" y="521" type="line"/>
      <point x="451" y="521" type="line"/>
      <point x="451" y="386" type="line"/>
    </contour>
  </outline>
</glyph>
<glyph name="iogonek" format="2">
  <advance width="600"/>
  <unicode hex="012F"/>
  <outline>
    <contour>
      <point x="293" y="604" type="curve" smooth="yes"/>
      <point x="328" y="604"/>
      <point x="356" y="632"/>
      <point x="356" y="666" type="curve" smooth="yes"/>
      <point x="356" y="700"/>
      <point x="328" y="728"/>
      <point x="293" y="728" type="curve" smooth="yes"/>
      <point x="258" y="728"/>
      <point x="230" y="700"/>
      <point x="230" y="666" type="curve" smooth="yes"/>
      <point x="230" y="632"/>
      <point x="258" y="604"/>
    </contour>
    <contour>
      <point x="431" y="-231" type="curve" smooth="yes"/>
      <point x="458" y="-231"/>
      <point x="485" y="-224"/>
      <point x="504" y="-212" type="curve"/>
      <point x="490" y="-173" type="line"/>
      <point x="478" y="-181"/>
      <point x="459" y="-185"/>
      <point x="442" y="-185" type="curve" smooth="yes"/>
      <point x="400" y="-185"/>
      <point x="375" y="-164"/>
      <point x="375" y="-128" type="curve" smooth="yes"/>
      <point x="375" y="-88"/>
      <point x="406" y="-49"/>
      <point x="474" y="-3" type="curve"/>
      <point x="492" y="1"/>
      <point x="511" y="6"/>
      <point x="529" y="13" type="curve"/>
      <point x="529" y="79" type="line"/>
      <point x="485" y="62"/>
      <point x="450" y="55"/>
      <point x="416" y="55" type="curve" smooth="yes"/>
      <point x="359" y="55"/>
      <point x="329" y="80"/>
      <point x="329" y="141" type="curve" smooth="yes"/>
      <point x="329" y="488" type="line"/>
      <point x="75" y="488" type="line"/>
      <point x="75" y="428" type="line"/>
      <point x="256" y="428" type="line"/>
      <point x="256" y="134" type="line" smooth="yes"/>
      <point x="256" y="39"/>
      <point x="310" y="-9"/>
      <point x="410" y="-10" type="curve"/>
      <point x="350" y="-56"/>
      <point x="325" y="-94"/>
      <point x="325" y="-140" type="curve" smooth="yes"/>
      <point x="325" y="-195"/>
      <point x="367" y="-231"/>
    </contour>
  </outline>
</glyph>
<glyph name="IJ" format="2">
  <advance width="600"/>
  <unicode hex="0132"/>
  <outline>
    <contour>
      <point x="241" y="92" type="curve"/>
      <point x="206" y="32" type="line"/>
      <point x="240" y="4"/>
      <point x="290" y="-11"/>
      <point x="342" y="-11" type="curve" smooth="yes"/>
      <point x="464" y="-11"/>
      <point x="541" y="69"/>
      <point x="541" y="198" type="curve" smooth="yes"/>
      <point x="541" y="700" type="line"/>
      <point x="464" y="700" type="line"/>
      <point x="464" y="198" type="line" smooth="yes"/>
      <point x="464" y="107"/>
      <point x="417" y="59"/>
      <point x="336" y="59" type="curve" smooth="yes"/>
      <point x="296" y="59"/>
      <point x="265" y="73"/>
    </contour>
    <contour>
      <point x="72" y="0" type="line"/>
      <point x="149" y="0" type="line"/>
      <point x="149" y="700" type="line"/>
      <point x="72" y="700" type="line"/>
    </contour>
  </outline>
</glyph>
<glyph name="Lslash" format="2">
  <advance width="600"/>
  <unicode hex="0141"/>
  <outline>
    <contour>
      <point x="109" y="0" type="line"/>
      <point x="546" y="0" type="line"/>
      <point x="546" y="67" type="line"/>
      <point x="186" y="67" type="line"/>
      <point x="186" y="298" type="line"/>
      <point x="404" y="438" type="line"/>
      <point x="404" y="512" type="line"/>
      <point x="186" y="372" type="line"/>
      <point x="186" y="700" type="line"/>
      <point x="109" y="700" type="line"/>
      <point x="109" y="325" type="line"/>
      <point x="8" y="260" type="line"/>
      <point x="8" y="186" type="line"/>
      <point x="109" y="251" type="line"/>
    </contour>
  </outline>
</glyph>
<glyph name="lslash" format="2">
  <advance width="600"/>
  <unicode hex="0142"/>
  <outline>
    <contour>
      <point x="415" y="-10" type="curve" smooth="yes"/>
      <point x="452" y="-10"/>
      <point x="490" y="-1"/>
      <point x="529" y="13" type="curve"/>
      <point x="529" y="79" type="line"/>
      <point x="485" y="62"/>
      <point x="450" y="55"/>
      <point x="416" y="55" type="curve" smooth="yes"/>
      <point x="359" y="55"/>
      <point x="329" y="80"/>
      <point x="329" y="141" type="curve" smooth="yes"/>
      <point x="329" y="339" type="line"/>
      <point x="514" y="443" type="line"/>
      <point x="514" y="513" type="line"/>
      <point x="329" y="409" type="line"/>
      <point x="329" y="727" type="line"/>
      <point x="75" y="727" type="line"/>
      <point x="75" y="667" type="line"/>
      <point x="256" y="667" type="line"/>
      <point x="256" y="370" type="line"/>
      <point x="88" y="275" type="line"/>
      <point x="88" y="205" type="line"/>
      <point x="256" y="300" type="line"/>
      <point x="256" y="134" type="line" smooth="yes"/>
      <point x="256" y="38"/>
      <point x="312" y="-10"/>
    </contour>
  </outline>
</glyph>
<glyph name="Eng" format="2">
  <advance width="600"/>
  <unicode hex="014A"/>
  <outline>
    <contour>
      <point x="386" y="-219" type="curve" smooth="yes"/>
      <point x="476" y="-219"/>
      <point x="524" y="-168"/>
      <point x="524" y="-73" type="curve" smooth="yes"/>
      <point x="524" y="700" type="line"/>
      <point x="454" y="700" type="line"/>
      <point x="456" y="130" type="line"/>
      <point x="164" y="700" type="line"/>
      <point x="76" y="700" type="line"/>
      <point x="76" y="0" type="line"/>
      <point x="146" y="0" type="line"/>
      <point x="144" y="587" type="line"/>
      <point x="453" y="-14" type="line"/>
      <point x="453" y="-63" type="line" smooth="yes"/>
      <point x="453" y="-128"/>
      <point x="431" y="-154"/>
      <point x="389" y="-154" type="curve" smooth="yes"/>
      <point x="358" y="-154"/>
      <point x="336" y="-150"/>
      <point x="305" y="-138" type="curve"/>
      <point x="305" y="-204" type="line"/>
      <point x="331" y="-214"/>
      <point x="359" y="-219"/>
    </contour>
  </outline>
</glyph>
<glyph name="OE" format="2">
  <advance width="600"/>
  <unicode hex="0152"/>
  <outline>
    <contour>
      <point x="22" y="350" type="curve" smooth="yes"/>
      <point x="22" y="136"/>
      <point x="130" y="0"/>
      <point x="300" y="0" type="curve" smooth="yes"/>
      <point x="580" y="0" type="line"/>
      <point x="580" y="67" type="line"/>
      <point x="363" y="67" type="line"/>
      <point x="363" y="320" type="line"/>
      <point x="503" y="320" type="line"/>
      <point x="503" y="387" type="line"/>
      <point x="363" y="387" type="line"/>
      <point x="363" y="633" type="line"/>
      <point x="576" y="633" type="line"/>
      <point x="576" y="700" type="line"/>
      <point x="300" y="700" type="line" smooth="yes"/>
      <point x="130" y="700"/>
      <point x="22" y="564"/>
    </contour>
    <contour>
      <point x="98" y="350" type="curve" smooth="yes"/>
      <point x="98" y="516"/>
      <point x="169" y="621"/>
      <point x="288" y="632" type="curve"/>
      <point x="288" y="68" type="line"/>
      <point x="169" y="79"/>
      <point x="98" y="184"/>
    </contour>
  </outline>
</glyph>
<glyph name="Scedilla" format="2">
  <advance width="600"/>
  <unicode hex="015E"/>
  <outline>
    <contour>
      <point x="296" y="-239" type="curve" smooth="yes"/>
      <point x="361" y="-239"/>
      <point x="407" y="-200"/>
      <point x="407" y="-146" type="curve" smooth="yes"/>
      <point x="407" y="-99"/>
      <point x="369" y="-69"/>
      <point x="310" y="-66" type="curve"/>
      <point x="323" y="-11" type="line"/>
      <point x="453" y="-6"/>
      <point x="547" y="80"/>
      <point x="547" y="193" type="curve" smooth="yes"/>
      <point x="547" y="458"/>
      <point x="149" y="327"/>
      <point x="149" y="532" type="curve" smooth="yes"/>
      <point x="149" y="597"/>
      <point x="209" y="646"/>
      <point x="294" y="646" type="curve" smooth="yes"/>
      <point x="359" y="646"/>
      <point x="427" y="619"/>
      <point x="500" y="563" type="curve"/>
      <point x="540" y="623" type="line"/>
      <point x="452" y="685"/>
      <point x="378" y="711"/>
      <point x="293" y="711" type="curve" smooth="yes"/>
      <point x="164" y="711"/>
      <point x="75" y="634"/>
      <point x="75" y="524" type="curve" smooth="yes"/>
      <point x="75" y="262"/>
      <point x="470" y="389"/>
      <point x="470" y="189" type="curve" smooth="yes"/>
      <point x="470" y="112"/>
      <point x="403" y="55"/>
      <point x="312" y="55" type="curve" smooth="yes"/>
      <point x="238" y="55"/>
      <point x="181" y="82"/>
      <point x="99" y="157" type="curve"/>
      <point x="53" y="99" type="line"/>
      <point x="128" y="31"/>
      <point x="200" y="-3"/>
      <point x="281" y="-10" type="curve"/>
      <point x="258" y="-99" type="line"/>
      <point x="287" y="-99" type="line" smooth="yes"/>
      <point x="332" y="-99"/>
      <point x="358" y="-117"/>
      <point x="358" y="-148" type="curve" smooth="yes"/>
      <point x="358" y="-180"/>
      <point x="334" y="-200"/>
      <point x="293" y="-200" type="curve" smooth="yes"/>
      <point x="264" y="-200"/>
      <point x="237" y="-190"/>
      <point x="214" y="-171" type="curve"/>
      <point x="186" y="-203" type="line"/>
      <point x="213" y="-227"/>
      <point x="251" y="-239"/>
    </contour>
  </outline>
</glyph>
<glyph name="tcedilla" format="2">
  <advance width="600"/>
  <unicode hex="0163"/>
  <outline>
    <contour>
      <point x="380" y="-10" type="curve" smooth="yes"/>
      <point x="422" y="-10"/>
      <point x="465" y="-1"/>
      <point x="509" y="15" type="curve"/>
      <point x="509" y="81" type="line"/>
      <point x="460" y="62"/>
      <point x="419" y="55"/>
      <point x="381" y="55" type="curve" smooth="yes"/>
      <point x="318" y="55"/>
      <point x="284" y="80"/>
      <point x="284" y="141" type="curve" smooth="yes"/>
      <point x="284" y="428" type="line"/>
      <point x="509" y="428" type="line"/>
      <point x="509" y="488" type="line"/>
      <point x="284" y="488" type="line"/>
      <point x="284" y="639" type="line"/>
      <point x="211" y="622" type="line"/>
      <point x="211" y="488" type="line"/>
      <point x="44" y="488" type="line"/>
      <point x="44" y="428" type="line"/>
      <point x="211" y="428" type="line"/>
      <point x="211" y="129" type="line" smooth="yes"/>
      <point x="211" y="59"/>
      <point x="246" y="15"/>
      <point x="311" y="-2" type="curve"/>
      <point x="287" y="-99" type="line"/>
      <point x="316" y="-99" type="line" smooth="yes"/>
      <point x="361" y="-99"/>
      <point x="387" y="-117"/>
      <point x="387" y="-148" type="curve" smooth="yes"/>
      <point x="387" y="-180"/>
      <point x="363" y="-200"/>
      <point x="322" y="-200" type="curve" smooth="yes"/>
      <point x="293" y="-200"/>
      <point x="266" y="-190"/>
      <point x="243" y="-171" type="curve"/>
      <point x="215" y="-203" type="line"/>
      <point x="242" y="-227"/>
      <point x="280" y="-239"/>
      <point x="325" y="-239" type="curve" smooth="yes"/>
      <point x="390" y="-239"/>
      <point x="436" y="-200"/>
      <point x="436" y="-146" type="curve" smooth="yes"/>
      <point x="436" y="-99"/>
      <point x="398" y="-69"/>
      <point x="339" y="-66" type="curve"/>
      <point x="352" y="-9" type="line"/>
      <point x="361" y="-10"/>
      <point x="370" y="-10"/>
    </contour>
  </outline>
</glyph>
<glyph name="tcaron" format="2">
  <advance width="600"/>
  <unicode hex="0165"/>
  <outline>
    <contour>
      <point x="367" y="577" type="line"/>
      <point x="423" y="577" type="line"/>
      <point x="448" y="787" type="line"/>
      <point x="372" y="772" type="line"/>
    </contour>
    <component base="t"/>
  </outline>
</glyph>
<glyph name="Uogonek" format="2">
  <advance width="600"/>
  <unicode hex="0172"/>
  <outline>
    <contour>
      <point x="331" y="-231" type="curve" smooth="yes"/>
      <point x="358" y="-231"/>
      <point x="385" y="-224"/>
      <point x="404" y="-212" type="curve"/>
      <point x="390" y="-173" type="line"/>
      <point x="378" y="-181"/>
      <point x="359" y="-185"/>
      <point x="342" y="-185" type="curve" smooth="yes"/>
      <point x="300" y="-185"/>
      <point x="275" y="-164"/>
      <point x="275" y="-128" type="curve" smooth="yes"/>
      <point x="275" y="-87"/>
      <point x="307" y="-47"/>
      <point x="379" y="0" type="curve"/>
      <point x="480" y="30"/>
      <point x="541" y="122"/>
      <point x="541" y="251" type="curve" smooth="yes"/>
      <point x="541" y="700" type="line"/>
      <point x="464" y="700" type="line"/>
      <point x="464" y="251" type="line" smooth="yes"/>
      <point x="464" y="134"/>
      <point x="400" y="59"/>
      <point x="300" y="59" type="curve" smooth="yes"/>
      <point x="200" y="59"/>
      <point x="136" y="134"/>
      <point x="136" y="251" type="curve" smooth="yes"/>
      <point x="136" y="700" type="line"/>
      <point x="59" y="700" type="line"/>
      <point x="59" y="251" type="line" smooth="yes"/>
      <point x="59.0" y="87.75675675675677"/>
      <point x="152" y="-14.0"/>
      <point x="310" y="-11" type="curve"/>
      <point x="250" y="-56"/>
      <point x="225" y="-95"/>
      <point x="225" y="-140" type="curve" smooth="yes"/>
      <point x="225" y="-195"/>
      <point x="267" y="-231"/>
    </contour>
  </outline>
</glyph>
<glyph name="caron" format="2">
  <advance width="600"/>
  <unicode hex="02C7"/>
  <outline>
    <contour>
      <point x="261" y="603" type="line"/>
      <point x="339" y="603" type="line"/>
      <point x="453" y="730" type="line"/>
      <point x="392" y="730" type="line"/>
      <point x="300" y="647" type="line"/>
      <point x="208" y="730" type="line"/>
      <point x="147" y="730" type="line"/>
    </contour>
  </outline>
</glyph>
<glyph name="hungarumlaut" format="2">
  <advance width="600"/>
  <unicode hex="02DD"/>
  <outline>
    <contour>
      <point x="165" y="582" type="line"/>
      <point x="234" y="582" type="line"/>
      <point x="378" y="706" type="line"/>
      <point x="294" y="706" type="line"/>
    </contour>
    <contour>
      <point x="338" y="582" type="line"/>
      <point x="405" y="582" type="line"/>
      <point x="552" y="706" type="line"/>
      <point x="467" y="706" type="line"/>
    </contour>
  </outline>
</glyph>
<glyph name="uni0328" format="2">
  <unicode hex="0328"/>
  <anchor x="353" y="0" name="_bottom"/>
  <outline>
    <contour>
      <point x="305" y="-231" type="curve" smooth="yes"/>
      <point x="332" y="-231"/>
      <point x="359" y="-224"/>
      <point x="378" y="-212" type="curve"/>
      <point x="364" y="-173" type="line"/>
      <point x="352" y="-181"/>
      <point x="333" y="-185"/>
      <point x="316" y="-185" type="curve" smooth="yes"/>
      <point x="274" y="-185"/>
      <point x="249" y="-164"/>
      <point x="249" y="-128" type="curve" smooth="yes"/>
      <point x="249" y="-87"/>
      <point x="281" y="-47"/>
      <point x="353" y="0" type="curve"/>
      <point x="321" y="16" type="line"/>
      <point x="234" y="-42"/>
      <point x="199" y="-86"/>
      <point x="199" y="-140" type="curve" smooth="yes"/>
      <point x="199" y="-195"/>
      <point x="241" y="-231"/>
    </contour>
  </outline>
</glyph>
<glyph name="emdash" format="2">
  <advance width="600"/>
  <unicode hex="2014"/>
  <outline>
    <contour>
      <point x="15" y="250" type="line"/>
      <point x="585" y="250" type="line"/>
      <point x="585" y="310" type="line"/>
      <point x="15" y="310" type="line"/>
    </contour>
  </outline>
</glyph>
<glyph name="uni2015" format="2">
  <advance width="600"/>
  <unicode hex="2015"/>
  <outline>
    <contour>
      <point x="0" y="250" type="line"/>
      <point x="600" y="250" type="line"/>
      <point x="600" y="310" type="line"/>
      <point x="0" y="310" type="line"/>
    </contour>
  </outline>
</glyph>
<glyph name="bullet" format="2">
  <advance width="600"/>
  <unicode hex="2022"/>
  <outline>
    <contour>
      <point x="300" y="252" type="curve" smooth="yes"/>
      <point x="354" y="252"/>
      <point x="400" y="296"/>
      <point x="400" y="353" type="curve" smooth="yes"/>
      <point x="400" y="410"/>
      <point x="354" y="454"/>
      <point x="300" y="454" type="curve" smooth="yes"/>
      <point x="246" y="454"/>
      <point x="200" y="410"/>
      <point x="200" y="353" type="curve" smooth="yes"/>
      <point x="200" y="296"/>
      <point x="246" y="252"/>
    </contour>
  </outline>
</glyph>
<glyph name="ellipsis" format="2">
  <advance width="600"/>
  <unicode hex="2026"/>
  <guideline x="220" y="55" angle="0.0" identifier="l7XyiSVBK4"/>
  <outline>
    <contour>
      <point x="95" y="-9" type="curve" smooth="yes"/>
      <point x="132" y="-9"/>
      <point x="160" y="20"/>
      <point x="160" y="56" type="curve" smooth="yes"/>
      <point x="160" y="92"/>
      <point x="132" y="121"/>
      <point x="95" y="121" type="curve" smooth="yes"/>
      <point x="58" y="121"/>
      <point x="30" y="92"/>
      <point x="30" y="56" type="curve" smooth="yes"/>
      <point x="30" y="20"/>
      <point x="58" y="-9"/>
    </contour>
    <contour>
      <point x="300" y="-9" type="curve" smooth="yes"/>
      <point x="337" y="-9"/>
      <point x="365" y="20"/>
      <point x="365" y="56" type="curve" smooth="yes"/>
      <point x="365" y="92"/>
      <point x="337" y="121"/>
      <point x="300" y="121" type="curve" smooth="yes"/>
      <point x="263" y="121"/>
      <point x="235" y="92"/>
      <point x="235" y="56" type="curve" smooth="yes"/>
      <point x="235" y="20"/>
      <point x="263" y="-9"/>
    </contour>
    <contour>
      <point x="505" y="-9" type="curve" smooth="yes"/>
      <point x="542" y="-9"/>
      <point x="570" y="20"/>
      <point x="570" y="56" type="curve" smooth="yes"/>
      <point x="570" y="92"/>
      <point x="542" y="121"/>
      <point x="505" y="121" type="curve" smooth="yes"/>
      <point x="468" y="121"/>
      <point x="440" y="92"/>
      <point x="440" y="56" type="curve" smooth="yes"/>
      <point x="440" y="20"/>
      <point x="468" y="-9"/>
    </contour>
  </outline>
</glyph>
<glyph name="fraction" format="2">
  <advance width="600"/>
  <unicode hex="2044"/>
  <outline>
    <contour>
      <point x="60" y="0" type="line"/>
      <point x="116" y="0" type="line"/>
      <point x="508" y="700" type="line"/>
      <point x="452" y="700" type="line"/>
    </contour>
  </outline>
</glyph>
<glyph name="uni2079" format="2">
  <advance width="600"/>
  <unicode hex="2079"/>
  <outline>
    <contour>
      <point x="290" y="704" type="curve" smooth="yes"/>
      <point x="217" y="704"/>
      <point x="164" y="655"/>
      <point x="164" y="589" type="curve" smooth="yes"/>
      <point x="164" y="527"/>
      <point x="213" y="484"/>
      <point x="282" y="484" type="curve" smooth="yes"/>
      <point x="323" y="484"/>
      <point x="362" y="502"/>
      <point x="386" y="531" type="curve"/>
      <point x="386" y="443"/>
      <point x="344" y="389"/>
      <point x="273" y="389" type="curve" smooth="yes"/>
      <point x="253" y="389"/>
      <point x="226" y="397"/>
      <point x="202" y="409" type="curve"/>
      <point x="181" y="366" type="line"/>
      <point x="209" y="351"/>
      <point x="237" y="344"/>
      <point x="268" y="344" type="curve" smooth="yes"/>
      <point x="370" y="344"/>
      <point x="437" y="419"/>
      <point x="437" y="534" type="curve" smooth="yes"/>
      <point x="437" y="635"/>
      <point x="377" y="704"/>
    </contour>
    <contour>
      <point x="296" y="523" type="curve" smooth="yes"/>
      <point x="248" y="523"/>
      <point x="215" y="551"/>
      <point x="215" y="590" type="curve" smooth="yes"/>
      <point x="215" y="630"/>
      <point x="246" y="660"/>
      <point x="289" y="660" type="curve" smooth="yes"/>
      <point x="338" y="660"/>
      <point x="374" y="623"/>
      <point x="384" y="566" type="curve"/>
      <point x="361" y="538"/>
      <point x="329" y="523"/>
    </contour>
  </outline>
</glyph>
<glyph name="uni2083" format="2">
  <advance width="600"/>
  <unicode hex="2083"/>
  <outline>
    <contour>
      <point x="268" y="-5" type="curve" smooth="yes"/>
      <point x="346" y="-5"/>
      <point x="401" y="37"/>
      <point x="401" y="97" type="curve" smooth="yes"/>
      <point x="401" y="139"/>
      <point x="367" y="170"/>
      <point x="316" y="179" type="curve"/>
      <point x="361" y="191"/>
      <point x="389" y="222"/>
      <point x="389" y="259" type="curve" smooth="yes"/>
      <point x="389" y="315"/>
      <point x="338" y="355"/>
      <point x="268" y="355" type="curve" smooth="yes"/>
      <point x="223" y="355"/>
      <point x="178" y="338"/>
      <point x="142" y="307" type="curve"/>
      <point x="173" y="271" type="line"/>
      <point x="206" y="298"/>
      <point x="234" y="309"/>
      <point x="267" y="309" type="curve" smooth="yes"/>
      <point x="307" y="309"/>
      <point x="337" y="286"/>
      <point x="337" y="255" type="curve" smooth="yes"/>
      <point x="337" y="220"/>
      <point x="306" y="195"/>
      <point x="264" y="195" type="curve" smooth="yes"/>
      <point x="236" y="195" type="line"/>
      <point x="236" y="155" type="line"/>
      <point x="269" y="155" type="line" smooth="yes"/>
      <point x="318" y="155"/>
      <point x="350" y="133"/>
      <point x="350" y="98" type="curve" smooth="yes"/>
      <point x="350" y="63"/>
      <point x="316" y="40"/>
      <point x="268" y="40" type="curve" smooth="yes"/>
      <point x="234" y="40"/>
      <point x="202" y="51"/>
      <point x="167" y="78" type="curve"/>
      <point x="137" y="40" type="line"/>
      <point x="175" y="10"/>
      <point x="219" y="-5"/>
    </contour>
  </outline>
</glyph>
<glyph name="uni2086" format="2">
  <advance width="600"/>
  <unicode hex="2086"/>
  <outline>
    <contour>
      <point x="311" y="-5" type="curve" smooth="yes"/>
      <point x="384" y="-5"/>
      <point x="437" y="44"/>
      <point x="437" y="110" type="curve" smooth="yes"/>
      <point x="437" y="172"/>
      <point x="388" y="215"/>
      <point x="319" y="215" type="curve" smooth="yes"/>
      <point x="278" y="215"/>
      <point x="239" y="197"/>
      <point x="215" y="168" type="curve"/>
      <point x="215" y="256"/>
      <point x="257" y="310"/>
      <point x="328" y="310" type="curve" smooth="yes"/>
      <point x="348" y="310"/>
      <point x="375" y="302"/>
      <point x="399" y="290" type="curve"/>
      <point x="420" y="333" type="line"/>
      <point x="392" y="348"/>
      <point x="364" y="355"/>
      <point x="333" y="355" type="curve" smooth="yes"/>
      <point x="231" y="355"/>
      <point x="164" y="280"/>
      <point x="164" y="165" type="curve" smooth="yes"/>
      <point x="164" y="64"/>
      <point x="224" y="-5"/>
    </contour>
    <contour>
      <point x="305" y="176" type="curve" smooth="yes"/>
      <point x="353" y="176"/>
      <point x="386" y="148"/>
      <point x="386" y="109" type="curve" smooth="yes"/>
      <point x="386" y="69"/>
      <point x="355" y="39"/>
      <point x="312" y="39" type="curve" smooth="yes"/>
      <point x="263" y="39"/>
      <point x="227" y="76"/>
      <point x="217" y="133" type="curve"/>
      <point x="240" y="161"/>
      <point x="272" y="176"/>
    </contour>
  </outline>
</glyph>
<glyph name="uni2087" format="2">
  <advance width="600"/>
  <unicode hex="2087"/>
  <outline>
    <contour>
      <point x="199" y="0" type="line"/>
      <point x="259" y="0" type="line"/>
      <point x="428" y="311" type="line"/>
      <point x="428" y="350" type="line"/>
      <point x="159" y="350" type="line"/>
      <point x="159" y="308" type="line"/>
      <point x="372" y="308" type="line"/>
    </contour>
  </outline>
</glyph>
<glyph name="uni2088" format="2">
  <advance width="600"/>
  <unicode hex="2088"/>
  <outline>
    <contour>
      <point x="300" y="-5" type="curve" smooth="yes"/>
      <point x="378" y="-5"/>
      <point x="434" y="37"/>
      <point x="434" y="95" type="curve" smooth="yes"/>
      <point x="434" y="136"/>
      <point x="403" y="170"/>
      <point x="358" y="182" type="curve"/>
      <point x="396" y="194"/>
      <point x="421" y="225"/>
      <point x="421" y="262" type="curve" smooth="yes"/>
      <point x="421" y="315"/>
      <point x="368" y="355"/>
      <point x="300" y="355" type="curve" smooth="yes"/>
      <point x="232" y="355"/>
      <point x="179" y="315"/>
      <point x="179" y="262" type="curve" smooth="yes"/>
      <point x="179" y="225"/>
      <point x="204" y="194"/>
      <point x="242" y="182" type="curve"/>
      <point x="197" y="170"/>
      <point x="166" y="136"/>
      <point x="166" y="95" type="curve" smooth="yes"/>
      <point x="166" y="37"/>
      <point x="222" y="-5"/>
    </contour>
    <contour>
      <point x="300" y="202" type="curve" smooth="yes"/>
      <point x="259" y="202"/>
      <point x="229" y="226"/>
      <point x="229" y="258" type="curve" smooth="yes"/>
      <point x="229" y="290"/>
      <point x="259" y="314"/>
      <point x="300" y="314" type="curve" smooth="yes"/>
      <point x="341" y="314"/>
      <point x="371" y="290"/>
      <point x="371" y="258" type="curve" smooth="yes"/>
      <point x="371" y="226"/>
      <point x="341" y="202"/>
    </contour>
    <contour>
      <point x="300" y="36" type="curve" smooth="yes"/>
      <point x="252" y="36"/>
      <point x="217" y="63"/>
      <point x="217" y="99" type="curve" smooth="yes"/>
      <point x="217" y="135"/>
      <point x="252" y="162"/>
      <point x="300" y="162" type="curve" smooth="yes"/>
      <point x="348" y="162"/>
      <point x="383" y="135"/>
      <point x="383" y="99" type="curve" smooth="yes"/>
      <point x="383" y="63"/>
      <point x="348" y="36"/>
    </contour>
  </outline>
</glyph>
<glyph name="uni2191" format="2">
  <advance width="600"/>
  <unicode hex="2191"/>
  <outline>
    <contour>
      <point x="265" y="0" type="line"/>
      <point x="333" y="0" type="line"/>
      <point x="333" y="614" type="line"/>
      <point x="499" y="395" type="line"/>
      <point x="546" y="432" type="line"/>
      <point x="300" y="750" type="line"/>
      <point x="54" y="432" type="line"/>
      <point x="102" y="394" type="line"/>
      <point x="265" y="609" type="line"/>
    </contour>
  </outline>
</glyph>
<glyph name="minus" format="2">
  <advance width="600"/>
  <unicode hex="2212"/>
  <outline>
    <contour>
      <point x="102" y="328" type="line"/>
      <point x="498" y="328" type="line"/>
      <point x="498" y="388" type="line"/>
      <point x="102" y="388" type="line"/>
    </contour>
  </outline>
</glyph>
<glyph name="fi" format="2">
  <advance width="600"/>
  <unicode hex="FB01"/>
  <outline>
    <contour>
      <point x="132" y="0" type="line"/>
      <point x="205" y="0" type="line"/>
      <point x="205" y="428" type="line"/>
      <point x="344" y="428" type="line"/>
      <point x="344" y="488" type="line"/>
      <point x="205" y="488" type="line"/>
      <point x="205" y="586" type="line" smooth="yes"/>
      <point x="205" y="644"/>
      <point x="229" y="671"/>
      <point x="285" y="671" type="curve" smooth="yes"/>
      <point x="307" y="671"/>
      <point x="322" y="668"/>
      <point x="344" y="662" type="curve"/>
      <point x="344" y="728" type="line"/>
      <point x="326" y="734"/>
      <point x="305" y="737"/>
      <point x="278" y="737" type="curve" smooth="yes"/>
      <point x="184" y="737"/>
      <point x="132" y="683"/>
      <point x="132" y="587" type="curve" smooth="yes"/>
      <point x="132" y="488" type="line"/>
      <point x="23" y="488" type="line"/>
      <point x="23" y="428" type="line"/>
      <point x="132" y="428" type="line"/>
    </contour>
    <contour>
      <point x="473" y="604" type="curve" smooth="yes"/>
      <point x="508" y="604"/>
      <point x="536" y="632"/>
      <point x="536" y="666" type="curve" smooth="yes"/>
      <point x="536" y="700"/>
      <point x="508" y="728"/>
      <point x="473" y="728" type="curve" smooth="yes"/>
      <point x="438" y="728"/>
      <point x="410" y="700"/>
      <point x="410" y="666" type="curve" smooth="yes"/>
      <point x="410" y="632"/>
      <point x="438" y="604"/>
    </contour>
    <contour>
      <point x="437" y="0" type="line"/>
      <point x="510" y="0" type="line"/>
      <point x="510" y="488" type="line"/>
      <point x="437" y="488" type="line"/>
    </contour>
  </outline>
</glyph>
<glyph name="caronSlovak" format="2">
  <advance width="600"/>
  <outline>
    <contour>
      <point x="267" y="527" type="line"/>
      <point x="323" y="527" type="line"/>
      <point x="348" y="737" type="line"/>
      <point x="272" y="722" type="line"/>
    </contour>
  </outline>
</glyph>
<glyph name="commaaccent" format="2">
  <advance width="600"/>
  <outline>
    <contour>
      <point x="219" y="-274" type="line"/>
      <point x="272" y="-274" type="line"/>
      <point x="341" y="-87" type="line"/>
      <point x="268" y="-87" type="line"/>
    </contour>
  </outline>
</glyph>
<glyph name="g.alt" format="2">
  <advance width="600"/>
  <anchor x="291" y="488" name="top"/>
  <outline>
    <contour>
      <point x="282" y="-219" type="curve" smooth="yes"/>
      <point x="442" y="-219"/>
      <point x="542" y="-160"/>
      <point x="542" y="-68" type="curve" smooth="yes"/>
      <point x="542" y="-6"/>
      <point x="496" y="29"/>
      <point x="414" y="34" type="curve" smooth="yes"/>
      <point x="233" y="44" type="line" smooth="yes"/>
      <point x="194" y="46"/>
      <point x="174" y="59"/>
      <point x="174" y="84" type="curve" smooth="yes"/>
      <point x="174" y="111"/>
      <point x="196" y="132"/>
      <point x="229" y="141" type="curve"/>
      <point x="249" y="135"/>
      <point x="269" y="132"/>
      <point x="291" y="132" type="curve" smooth="yes"/>
      <point x="402" y="132"/>
      <point x="490" y="213"/>
      <point x="490" y="314" type="curve" smooth="yes"/>
      <point x="490" y="353"/>
      <point x="477" y="390"/>
      <point x="454" y="419" type="curve"/>
      <point x="466" y="444"/>
      <point x="488" y="459"/>
      <point x="518" y="459" type="curve" smooth="yes"/>
      <point x="537" y="459"/>
      <point x="551" y="458"/>
      <point x="563" y="454" type="curve"/>
      <point x="563" y="525" type="line"/>
      <point x="555" y="526"/>
      <point x="546" y="527"/>
      <point x="538" y="527" type="curve" smooth="yes"/>
      <point x="485" y="527"/>
      <point x="446" y="493"/>
      <point x="437" y="438" type="curve"/>
      <point x="401" y="474"/>
      <point x="349" y="496"/>
      <point x="291" y="496" type="curve" smooth="yes"/>
      <point x="180" y="496"/>
      <point x="92" y="415"/>
      <point x="92" y="314" type="curve" smooth="yes"/>
      <point x="92" y="245"/>
      <point x="133" y="185"/>
      <point x="195" y="154" type="curve"/>
      <point x="143" y="140"/>
      <point x="108" y="105"/>
      <point x="108" y="67" type="curve" smooth="yes"/>
      <point x="108" y="30"/>
      <point x="130" y="3"/>
      <point x="169" y="-11" type="curve"/>
      <point x="98" y="-32"/>
      <point x="61" y="-62"/>
      <point x="61" y="-101" type="curve" smooth="yes"/>
      <point x="61" y="-176"/>
      <point x="142" y="-219"/>
    </contour>
    <contour>
      <point x="291" y="188" type="curve" smooth="yes"/>
      <point x="219" y="188"/>
      <point x="163" y="243"/>
      <point x="163" y="314" type="curve" smooth="yes"/>
      <point x="163" y="385"/>
      <point x="219" y="440"/>
      <point x="291" y="440" type="curve" smooth="yes"/>
      <point x="363" y="440"/>
      <point x="419" y="385"/>
      <point x="419" y="314" type="curve" smooth="yes"/>
      <point x="419" y="243"/>
      <point x="363" y="188"/>
    </contour>
    <contour>
      <point x="276" y="-166" type="curve" smooth="yes"/>
      <point x="185" y="-166"/>
      <point x="131" y="-137"/>
      <point x="131" y="-89" type="curve" smooth="yes"/>
      <point x="131" y="-60"/>
      <point x="159" y="-35"/>
      <point x="206" y="-20" type="curve"/>
      <point x="214" y="-22"/>
      <point x="223" y="-23"/>
      <point x="232" y="-23" type="curve" smooth="yes"/>
      <point x="406" y="-32" type="line" smooth="yes"/>
      <point x="448" y="-34"/>
      <point x="469" y="-49"/>
      <point x="469" y="-79" type="curve" smooth="yes"/>
      <point x="469" y="-132"/>
      <point x="394" y="-166"/>
    </contour>
  </outline>
</glyph>
<glyph name="uni030C" format="2">
  <anchor x="300" y="488" name="_top"/>
  <outline>
    <contour>
      <point x="261" y="603" type="line"/>
      <point x="339" y="603" type="line"/>
      <point x="453" y="730" type="line"/>
      <point x="392" y="730" type="line"/>
      <point x="300" y="647" type="line"/>
      <point x="208" y="730" type="line"/>
      <point x="147" y="730" type="line"/>
    </contour>
  </outline>
</glyph>
